<?xml version="1.0" encoding="UTF-8" standalone="no"?>
<svg
   xmlns:dc="http://purl.org/dc/elements/1.1/"
   xmlns:cc="http://creativecommons.org/ns#"
   xmlns:rdf="http://www.w3.org/1999/02/22-rdf-syntax-ns#"
   xmlns:svg="http://www.w3.org/2000/svg"
   xmlns="http://www.w3.org/2000/svg"
   xmlns:sodipodi="http://sodipodi.sourceforge.net/DTD/sodipodi-0.dtd"
   xmlns:inkscape="http://www.inkscape.org/namespaces/inkscape"
   width="210mm"
   height="297mm"
   viewBox="0 0 210 297"
   version="1.1"
   id="svg8"
   inkscape:version="1.0.2 (e86c870879, 2021-01-15, custom)"
   sodipodi:docname="logos.svg">
  <defs
     id="defs2" />
  <sodipodi:namedview
     id="base"
     pagecolor="#ffffff"
     bordercolor="#666666"
     borderopacity="1.0"
     inkscape:pageopacity="0.0"
     inkscape:pageshadow="2"
     inkscape:zoom="5.6"
     inkscape:cx="146.35268"
     inkscape:cy="242.13877"
     inkscape:document-units="mm"
     inkscape:current-layer="layer1"
     inkscape:document-rotation="0"
     showgrid="false"
     inkscape:window-width="1920"
     inkscape:window-height="1009"
     inkscape:window-x="-8"
     inkscape:window-y="-8"
     inkscape:window-maximized="1">
    <inkscape:grid
       type="xygrid"
       id="grid833" />
  </sodipodi:namedview>
  <metadata
     id="metadata5">
    <rdf:RDF>
      <cc:Work
         rdf:about="">
        <dc:format>image/svg+xml</dc:format>
        <dc:type
           rdf:resource="http://purl.org/dc/dcmitype/StillImage" />
        <dc:title></dc:title>
      </cc:Work>
    </rdf:RDF>
  </metadata>
  <g
     inkscape:label="Layer 1"
     inkscape:groupmode="layer"
     id="layer1">
    <path
       id="path835-2"
       style="fill:#5599ff;stroke:none;stroke-width:2.26771;stroke-linecap:round;stroke-linejoin:round"
       d="M 146.80664 195.86328 A 28.346457 28.346457 0 0 0 118.66406 224.20898 A 28.346457 28.346457 0 0 0 118.66406 224.41211 L 118.66406 252.55664 L 147.00977 252.55664 A 28.346457 28.346457 0 0 0 175.35742 224.20898 A 28.346457 28.346457 0 0 0 147.00977 195.86328 A 28.346457 28.346457 0 0 0 146.80664 195.86328 z "
       transform="scale(0.26458333)" />
    <path
       id="path835"
       style="fill:#ffffff;stroke:none;stroke-width:0.4;stroke-linecap:round;stroke-linejoin:round"
       d="m 39.146456,54.072199 v 5.00021 h 5.000213 a 5,5 0 0 0 0,-0.01964 5,5 0 0 0 -5.000213,-4.980575 z" />
    <path
       id="path835-1"
       style="fill:#ffffff;stroke:none;stroke-width:0.4;stroke-linecap:round;stroke-linejoin:round"
       d="m 33.646456,59.072417 h 5.000209 v -5.000213 a 5,5 0 0 0 -0.01963,0 5,5 0 0 0 -4.980574,5.000213 z" />
    <rect
       style="fill:#ffffff;stroke:none;stroke-width:0.154303;stroke-linecap:round;stroke-linejoin:round"
       id="rect900"
       width="5"
       height="5"
       x="33.646458"
       y="59.572193" />
  </g>
</svg>
